<?xml version="1.0" encoding="utf-8"?>
<!-- Generator: Adobe Illustrator 23.0.1, SVG Export Plug-In . SVG Version: 6.00 Build 0)  -->
<svg version="1.1" id="Layer_1" xmlns="http://www.w3.org/2000/svg" xmlns:xlink="http://www.w3.org/1999/xlink" x="0px" y="0px"
	 viewBox="0 0 512 512" style="enable-background:new 0 0 512 512;" xml:space="preserve">
<style type="text/css">
	.st0{fill:#1099D6;}
	.st1{fill-rule:evenodd;clip-rule:evenodd;fill:#851619;}
	.st2{fill:#EDD9B4;}
	.st3{fill:#DCC5A1;}
	.st4{fill-rule:evenodd;clip-rule:evenodd;fill:#BC9F82;}
	.st5{fill:#FFFFFF;}
	.st6{fill:#D43329;}
	.st7{fill:#CA3029;}
	.st8{fill:#A82623;}
	.st9{fill:#342214;}
	.st10{fill:#1B75BC;}
</style>
<g>
	<path class="st0" d="M190,336l-0.2,0.2l35,54.3l23.7-21.6l0,0l0,0l7.4-6.7l0.3,0.3l30.8,28l35-54.3l-0.2-0.2
		c25.1,16.1,57.8,25,85.6,31.2c2.1,0.4,4,1,5.8,1.7c17.9-28.6,28.3-62.4,28.3-98.5C441.5,167.9,358.4,84.8,256,84.8
		S70.4,167.9,70.4,270.5c0,36.2,10.4,69.9,28.3,98.5c1.8-0.7,3.8-1.2,5.8-1.7C132.2,361,164.9,352.1,190,336z"/>
	<path class="st1" d="M139.3,282.8C124.2,127.1,166.9,56,255.8,56s136.3,80.5,114.6,226.8C303.9,321.7,196.7,315.3,139.3,282.8"/>
	<path class="st2" d="M256,205.5v160.2c13.8-1.6,26.8-15.1,37.9-29.7v-92.9C293.9,218.1,274.9,205.5,256,205.5z"/>
	<path class="st3" d="M218,243.2v92.9c13,23.7,25.8,31.1,37.9,29.7V205.5C237,205.5,218,218.1,218,243.2z"/>
	<path class="st4" d="M293.9,239.4v62.2c-14.4,11.2-28.2,17.5-37.9,17.5c-9.7,0-23.6-6.3-37.9-17.5v-62.2
		C218,189.2,293.9,189.2,293.9,239.4"/>
	<polygon class="st5" points="256,362.2 256,362.2 256,362.2 256,362.2 	"/>
	<g>
		<g>
			<path class="st3" d="M255.7,72.7c-68.3,0-100.4,60.9-96.9,113.6c-4.3-2.9-8.7-3.9-12.4-2.3c-7.9,3.4-9.6,17.3-3.7,31.1
				c5.9,13.8,17.1,22.1,25,18.7c1.4-0.6,2.5-1.5,3.5-2.7c21.4,43.6,63.1,72.5,84.4,72.5l0,0L255.7,72.7L255.7,72.7z"/>
			<path class="st2" d="M365.5,184c-3.9-1.6-8.5-0.5-12.9,2.7c3.7-52.9-28.4-114-96.9-114v231c21.3,0,63.2-29.1,84.6-72.9
				c1,1.3,2.3,2.3,3.9,3c7.9,3.4,19.2-5,25-18.7C375.1,201.3,373.5,187.4,365.5,184z"/>
		</g>
		<path class="st1" d="M308,113.7c39.9,25.5,42.2,59.6,43.9,86C369.8,177.4,371.4,98.2,308,113.7"/>
		<path class="st1" d="M205.5,113.7c-39.9,25.5-42.2,59.6-43.9,86C143.6,177.4,142.1,98.2,205.5,113.7"/>
		<path class="st1" d="M154.5,137.5c3.5-113.8,201.6-103.1,202.6,0c-20.4,4.9-45.1,7.8-70.8,9c-1.5-10.2-4.4-23.3-9.5-39.9
			c-2.8,7.8-4.6,25-5.4,40.3c-15.1,0.3-30.1,0.1-44.7-0.6c-0.9-15.1-2.7-31.4-5.3-39.1c-4.9,15.7-7.8,28.2-9.3,38.1
			C190.1,143.8,170.1,141.1,154.5,137.5"/>
	</g>
	<g>
		<g>
			<path class="st6" d="M266.8,260.9c0,0,0.4,6.9-11.4,6.9c-3.4,0-11.2-1.5-11.2-6.7C251.2,262.7,259.5,263.1,266.8,260.9"/>
			<path class="st7" d="M260,258.1c2.6,0.3,7.1,2.8,6.8,2.8c-7.3,2.2-15.6,1.8-22.5,0.2c-0.1,0-0.2,0-0.2-0.1
				c2.3-0.9,5.4-2.9,7.7-2.8c1.2,0.1,2.7,1,3.8,1C257.2,259.3,258.3,257.8,260,258.1"/>
			<path class="st8" d="M240.5,260c8.8,3.7,21.1,4,29.8-0.2c0.2-0.1,0.1-0.4-0.2-0.3C259.7,262.8,251.1,262.2,240.5,260
				C240.5,260,240.4,260,240.5,260"/>
		</g>
		<path class="st9" d="M214.7,189.2c5.6,0,10.2,5.2,10.2,11.5s-4.6,11.5-10.2,11.5s-10.2-5.2-10.2-11.5S209.1,189.2,214.7,189.2"/>
		<path class="st9" d="M297.2,189.2c5.6,0,10.2,5.2,10.2,11.5s-4.6,11.5-10.2,11.5s-10.2-5.2-10.2-11.5S291.7,189.2,297.2,189.2"/>
	</g>
	<polygon class="st5" points="256.3,362.5 256,362.2 248.6,368.9 256,362.2 	"/>
	<path class="st10" d="M248.6,455.8v-87l-23.7,21.6l-35-54.3l0.2-0.2c-25.1,16.1-57.8,25-85.6,31.2c-2.1,0.4-4,1-5.8,1.7
		C130.3,419.3,185.3,453.3,248.6,455.8z"/>
	<path class="st10" d="M321.9,336l0.2,0.2l-35,54.3l-30.8-28l7.1,6.4v87c63.2-2.5,118.3-36.6,149.9-86.9c-1.8-0.7-3.8-1.2-5.8-1.7
		C379.7,361,347,352.1,321.9,336z"/>
	<path class="st5" d="M321.9,336l-28-25.7L256,362.2l0,0l0,0l0,0l0,0L218,310.3L190,336l-0.2,0.2l35,54.3l23.7-21.6v87
		c2.4,0.1,4.9,0.2,7.4,0.2l0,0c2.5,0,4.9-0.1,7.4-0.2v-87l23.7,21.6l35-54.3L321.9,336z"/>
	<path class="st5" d="M248.6,368.9L248.6,368.9L248.6,368.9z"/>
</g>
</svg>
